<svg width="509" height="449" viewBox="0 0 509 449" fill="none" xmlns="http://www.w3.org/2000/svg">
<path d="M111.44 374L93.36 330.96H106.24L121.28 368H114.88L130.48 330.96H142.48L124.32 374H111.44ZM166.881 374.64C162.294 374.64 158.214 373.68 154.641 371.76C151.121 369.84 148.321 367.227 146.241 363.92C144.214 360.56 143.201 356.747 143.201 352.48C143.201 348.16 144.214 344.347 146.241 341.04C148.321 337.68 151.121 335.067 154.641 333.2C158.214 331.28 162.294 330.32 166.881 330.32C171.414 330.32 175.467 331.28 179.041 333.2C182.614 335.067 185.414 337.653 187.441 340.96C189.467 344.267 190.481 348.107 190.481 352.48C190.481 356.747 189.467 360.56 187.441 363.92C185.414 367.227 182.614 369.84 179.041 371.76C175.467 373.68 171.414 374.64 166.881 374.64ZM166.881 364.4C168.961 364.4 170.827 363.92 172.481 362.96C174.134 362 175.441 360.64 176.401 358.88C177.361 357.067 177.841 354.933 177.841 352.48C177.841 349.973 177.361 347.84 176.401 346.08C175.441 344.32 174.134 342.96 172.481 342C170.827 341.04 168.961 340.56 166.881 340.56C164.801 340.56 162.934 341.04 161.281 342C159.627 342.96 158.294 344.32 157.281 346.08C156.321 347.84 155.841 349.973 155.841 352.48C155.841 354.933 156.321 357.067 157.281 358.88C158.294 360.64 159.627 362 161.281 362.96C162.934 363.92 164.801 364.4 166.881 364.4ZM219.623 374.64C214.983 374.64 210.849 373.707 207.223 371.84C203.596 369.92 200.743 367.28 198.663 363.92C196.636 360.56 195.623 356.747 195.623 352.48C195.623 348.16 196.636 344.347 198.663 341.04C200.743 337.68 203.596 335.067 207.223 333.2C210.849 331.28 214.983 330.32 219.623 330.32C224.156 330.32 228.103 331.28 231.463 333.2C234.823 335.067 237.303 337.76 238.903 341.28L229.223 346.48C228.103 344.453 226.689 342.96 224.983 342C223.329 341.04 221.516 340.56 219.543 340.56C217.409 340.56 215.489 341.04 213.783 342C212.076 342.96 210.716 344.32 209.703 346.08C208.743 347.84 208.263 349.973 208.263 352.48C208.263 354.987 208.743 357.12 209.703 358.88C210.716 360.64 212.076 362 213.783 362.96C215.489 363.92 217.409 364.4 219.543 364.4C221.516 364.4 223.329 363.947 224.983 363.04C226.689 362.08 228.103 360.56 229.223 358.48L238.903 363.76C237.303 367.227 234.823 369.92 231.463 371.84C228.103 373.707 224.156 374.64 219.623 374.64ZM266.901 374.64C261.995 374.64 257.675 373.68 253.941 371.76C250.261 369.84 247.408 367.227 245.381 363.92C243.355 360.56 242.341 356.747 242.341 352.48C242.341 348.16 243.328 344.347 245.301 341.04C247.328 337.68 250.075 335.067 253.541 333.2C257.008 331.28 260.928 330.32 265.301 330.32C269.515 330.32 273.301 331.227 276.661 333.04C280.075 334.8 282.768 337.36 284.741 340.72C286.715 344.027 287.701 348 287.701 352.64C287.701 353.12 287.675 353.68 287.621 354.32C287.568 354.907 287.515 355.467 287.461 356H252.501V348.72H280.901L276.101 350.88C276.101 348.64 275.648 346.693 274.741 345.04C273.835 343.387 272.581 342.107 270.981 341.2C269.381 340.24 267.515 339.76 265.381 339.76C263.248 339.76 261.355 340.24 259.701 341.2C258.101 342.107 256.848 343.413 255.941 345.12C255.035 346.773 254.581 348.747 254.581 351.04V352.96C254.581 355.307 255.088 357.387 256.101 359.2C257.168 360.96 258.635 362.32 260.501 363.28C262.421 364.187 264.661 364.64 267.221 364.64C269.515 364.64 271.515 364.293 273.221 363.6C274.981 362.907 276.581 361.867 278.021 360.48L284.661 367.68C282.688 369.92 280.208 371.653 277.221 372.88C274.235 374.053 270.795 374.64 266.901 374.64ZM248.981 325.44L259.541 313.92H270.581L281.141 325.44H272.021L260.981 315.84H269.141L258.101 325.44H248.981Z" fill="url(#paint0_linear_33_43)"/>
<path d="M335.477 352.156C335.491 351.089 335.72 350.142 336.164 349.315C336.591 348.47 337.25 347.812 338.139 347.34C339.012 346.868 340.132 346.64 341.498 346.658L349.198 346.757L349.148 350.657L342.048 350.565C340.965 350.551 340.162 350.783 339.639 351.259C339.117 351.719 338.85 352.383 338.839 353.249C338.831 353.866 338.957 354.426 339.217 354.929C339.461 355.416 339.847 355.804 340.377 356.094C340.907 356.368 341.589 356.51 342.422 356.521L349.071 356.606L349.021 360.506L335.572 360.333L335.62 356.608L339.345 356.656L338.211 357.342C337.317 356.847 336.634 356.146 336.163 355.24C335.691 354.334 335.463 353.306 335.477 352.156ZM349.527 336.727C349.508 338.161 349.192 339.432 348.578 340.541C347.964 341.633 347.136 342.497 346.094 343.134C345.036 343.754 343.84 344.055 342.507 344.038C341.157 344.021 339.97 343.689 338.945 343.042C337.903 342.379 337.098 341.493 336.529 340.386C335.943 339.261 335.659 337.983 335.678 336.549C335.696 335.133 336.012 333.87 336.627 332.761C337.224 331.652 338.044 330.788 339.085 330.168C340.127 329.548 341.331 329.247 342.697 329.264C344.03 329.281 345.218 329.613 346.26 330.26C347.285 330.907 348.09 331.792 348.676 332.916C349.261 334.041 349.545 335.311 349.527 336.727ZM346.327 336.686C346.335 336.036 346.193 335.451 345.9 334.931C345.606 334.41 345.186 333.996 344.64 333.689C344.078 333.382 343.413 333.224 342.646 333.214C341.863 333.204 341.195 333.345 340.641 333.638C340.087 333.931 339.657 334.334 339.35 334.847C339.043 335.359 338.886 335.941 338.878 336.591C338.869 337.241 339.012 337.826 339.305 338.346C339.598 338.867 340.018 339.289 340.564 339.613C341.11 339.92 341.775 340.078 342.558 340.088C343.325 340.098 343.993 339.957 344.564 339.664C345.118 339.354 345.548 338.943 345.855 338.43C346.161 337.918 346.319 337.336 346.327 336.686Z" fill="url(#paint1_linear_33_43)"/>
<path d="M78.44 429.96C74.12 429.96 70.0933 429.267 66.36 427.88C62.68 426.44 59.48 424.413 56.76 421.8C54.04 419.187 51.9067 416.12 50.36 412.6C48.8667 409.08 48.12 405.213 48.12 401C48.12 396.787 48.8667 392.92 50.36 389.4C51.9067 385.88 54.04 382.813 56.76 380.2C59.5333 377.587 62.76 375.587 66.44 374.2C70.12 372.76 74.1467 372.04 78.52 372.04C83.3733 372.04 87.7467 372.893 91.64 374.6C95.5867 376.253 98.8933 378.707 101.56 381.96L93.24 389.64C91.32 387.453 89.1867 385.827 86.84 384.76C84.4933 383.64 81.9333 383.08 79.16 383.08C76.5467 383.08 74.1467 383.507 71.96 384.36C69.7733 385.213 67.88 386.44 66.28 388.04C64.68 389.64 63.4267 391.533 62.52 393.72C61.6667 395.907 61.24 398.333 61.24 401C61.24 403.667 61.6667 406.093 62.52 408.28C63.4267 410.467 64.68 412.36 66.28 413.96C67.88 415.56 69.7733 416.787 71.96 417.64C74.1467 418.493 76.5467 418.92 79.16 418.92C81.9333 418.92 84.4933 418.387 86.84 417.32C89.1867 416.2 91.32 414.52 93.24 412.28L101.56 419.96C98.8933 423.213 95.5867 425.693 91.64 427.4C87.7467 429.107 83.3467 429.96 78.44 429.96ZM128.428 429.64C123.841 429.64 119.761 428.68 116.188 426.76C112.668 424.84 109.868 422.227 107.788 418.92C105.761 415.56 104.748 411.747 104.748 407.48C104.748 403.16 105.761 399.347 107.788 396.04C109.868 392.68 112.668 390.067 116.188 388.2C119.761 386.28 123.841 385.32 128.428 385.32C132.961 385.32 137.014 386.28 140.588 388.2C144.161 390.067 146.961 392.653 148.988 395.96C151.014 399.267 152.028 403.107 152.028 407.48C152.028 411.747 151.014 415.56 148.988 418.92C146.961 422.227 144.161 424.84 140.588 426.76C137.014 428.68 132.961 429.64 128.428 429.64ZM128.428 419.4C130.508 419.4 132.374 418.92 134.028 417.96C135.681 417 136.988 415.64 137.948 413.88C138.908 412.067 139.388 409.933 139.388 407.48C139.388 404.973 138.908 402.84 137.948 401.08C136.988 399.32 135.681 397.96 134.028 397C132.374 396.04 130.508 395.56 128.428 395.56C126.348 395.56 124.481 396.04 122.828 397C121.174 397.96 119.841 399.32 118.828 401.08C117.868 402.84 117.388 404.973 117.388 407.48C117.388 409.933 117.868 412.067 118.828 413.88C119.841 415.64 121.174 417 122.828 417.96C124.481 418.92 126.348 419.4 128.428 419.4ZM186.529 385.32C189.943 385.32 192.983 386.013 195.649 387.4C198.369 388.733 200.503 390.813 202.049 393.64C203.596 396.413 204.369 399.987 204.369 404.36V429H191.889V406.28C191.889 402.813 191.116 400.253 189.569 398.6C188.076 396.947 185.943 396.12 183.169 396.12C181.196 396.12 179.409 396.547 177.809 397.4C176.263 398.2 175.036 399.453 174.129 401.16C173.276 402.867 172.849 405.053 172.849 407.72V429H160.369V385.96H172.289V397.88L170.049 394.28C171.596 391.4 173.809 389.187 176.689 387.64C179.569 386.093 182.849 385.32 186.529 385.32ZM233.282 429.64C228.215 429.64 224.269 428.36 221.442 425.8C218.615 423.187 217.202 419.32 217.202 414.2V376.44H229.682V414.04C229.682 415.853 230.162 417.267 231.122 418.28C232.082 419.24 233.389 419.72 235.042 419.72C237.015 419.72 238.695 419.187 240.082 418.12L243.442 426.92C242.162 427.827 240.615 428.52 238.802 429C237.042 429.427 235.202 429.64 233.282 429.64ZM210.562 396.52V386.92H240.402V396.52H210.562ZM250.448 429V385.96H262.368V398.12L260.688 394.6C261.968 391.56 264.021 389.267 266.848 387.72C269.674 386.12 273.114 385.32 277.168 385.32V396.84C276.634 396.787 276.154 396.76 275.728 396.76C275.301 396.707 274.848 396.68 274.368 396.68C270.954 396.68 268.181 397.667 266.048 399.64C263.968 401.56 262.928 404.573 262.928 408.68V429H250.448ZM304.756 429.64C300.169 429.64 296.089 428.68 292.516 426.76C288.996 424.84 286.196 422.227 284.116 418.92C282.089 415.56 281.076 411.747 281.076 407.48C281.076 403.16 282.089 399.347 284.116 396.04C286.196 392.68 288.996 390.067 292.516 388.2C296.089 386.28 300.169 385.32 304.756 385.32C309.289 385.32 313.342 386.28 316.916 388.2C320.489 390.067 323.289 392.653 325.316 395.96C327.342 399.267 328.356 403.107 328.356 407.48C328.356 411.747 327.342 415.56 325.316 418.92C323.289 422.227 320.489 424.84 316.916 426.76C313.342 428.68 309.289 429.64 304.756 429.64ZM304.756 419.4C306.836 419.4 308.702 418.92 310.356 417.96C312.009 417 313.316 415.64 314.276 413.88C315.236 412.067 315.716 409.933 315.716 407.48C315.716 404.973 315.236 402.84 314.276 401.08C313.316 399.32 312.009 397.96 310.356 397C308.702 396.04 306.836 395.56 304.756 395.56C302.676 395.56 300.809 396.04 299.156 397C297.502 397.96 296.169 399.32 295.156 401.08C294.196 402.84 293.716 404.973 293.716 407.48C293.716 409.933 294.196 412.067 295.156 413.88C296.169 415.64 297.502 417 299.156 417.96C300.809 418.92 302.676 419.4 304.756 419.4ZM336.698 429V369.64H349.178V429H336.698ZM382.12 429.64C377.213 429.64 372.893 428.68 369.16 426.76C365.48 424.84 362.627 422.227 360.6 418.92C358.573 415.56 357.56 411.747 357.56 407.48C357.56 403.16 358.547 399.347 360.52 396.04C362.547 392.68 365.293 390.067 368.76 388.2C372.227 386.28 376.147 385.32 380.52 385.32C384.733 385.32 388.52 386.227 391.88 388.04C395.293 389.8 397.987 392.36 399.96 395.72C401.933 399.027 402.92 403 402.92 407.64C402.92 408.12 402.893 408.68 402.84 409.32C402.787 409.907 402.733 410.467 402.68 411H367.72V403.72H396.12L391.32 405.88C391.32 403.64 390.867 401.693 389.96 400.04C389.053 398.387 387.8 397.107 386.2 396.2C384.6 395.24 382.733 394.76 380.6 394.76C378.467 394.76 376.573 395.24 374.92 396.2C373.32 397.107 372.067 398.413 371.16 400.12C370.253 401.773 369.8 403.747 369.8 406.04V407.96C369.8 410.307 370.307 412.387 371.32 414.2C372.387 415.96 373.853 417.32 375.72 418.28C377.64 419.187 379.88 419.64 382.44 419.64C384.733 419.64 386.733 419.293 388.44 418.6C390.2 417.907 391.8 416.867 393.24 415.48L399.88 422.68C397.907 424.92 395.427 426.653 392.44 427.88C389.453 429.053 386.013 429.64 382.12 429.64Z" fill="url(#paint2_linear_33_43)"/>
<path d="M0.534912 116.361L21.5644 108.715L33.986 153.506L46.05 200.14L68.9299 288.585L292.998 271.195L509.001 259.726L50.4666 308.802L0.534912 116.361Z" fill="#22C55E"/>
<path d="M27.0538 105.339L63.6196 93.4224L69.3537 125.919L71.2652 137.388L73.1767 148.857L76.9998 167.972L94.2035 253.991L461.834 253.991L313.458 265.872L157.286 276.929L72.5926 284.229L27.0538 105.339Z" fill="#22C55E"/>
<path d="M65.5312 93.4224L136.258 93.4224L203.161 93.4224L220.365 248.256L96.7229 250.187L65.5312 93.4224Z" fill="#22C55E"/>
<path d="M130.448 114.602C129.774 103.818 138.217 94.644 149.019 94.4211L197.424 93.4223L250.946 93.4223L304.469 93.4223L328.012 93.4223L348.527 94.1998C350.12 94.2602 351.676 94.6978 353.066 95.4766L354.488 96.273C362.016 100.49 360.405 111.763 351.998 113.703V113.703C351.302 113.864 350.59 113.945 349.876 113.945L314.631 113.945L266.843 113.945L215.792 113.945C210.125 113.945 209.172 122.06 214.686 123.373V123.373C215.048 123.459 215.42 123.503 215.792 123.503L263.02 123.503L314.631 123.503L329.579 123.503C330.664 123.503 331.732 123.766 332.692 124.271V124.271C338.876 127.522 336.565 136.883 329.579 136.883L327.407 136.883L335.658 136.883L291.693 136.883L257.285 136.883L217.935 136.883C216.204 136.883 214.544 137.571 213.32 138.795L212.852 139.264C211.928 140.187 211.409 141.44 211.409 142.747V142.747C211.409 144.936 212.878 146.873 214.983 147.477C224.327 150.161 205.276 144.366 216.431 147.59C218.16 148.09 219.969 148.353 221.769 148.353L291.693 148.353L328.012 148.353L347.127 148.353L349.11 148.353C355.536 148.353 360.226 154.427 358.601 160.644V160.644C357.472 164.961 353.572 167.972 349.11 167.972L319.761 167.972L281.531 167.972L245.212 167.972L237.127 167.972C226.196 167.972 223.826 183.354 234.25 186.644V186.644C235.181 186.938 236.151 187.087 237.127 187.087L356.684 187.087L367.51 187.087C374.932 187.087 378.87 195.856 373.939 201.404V201.404C372.306 203.24 369.967 204.291 367.51 204.291L356.684 204.291L331.23 204.291V204.291C321.469 205.657 322.274 220.011 332.127 220.277L423.43 222.743C427.169 222.844 430.675 224.581 433.021 227.494V227.494C439.745 235.841 433.803 248.256 423.085 248.256L421.072 248.256L386.665 248.256L350.95 248.256L279.619 248.256L205.07 248.256L156.483 247.887C146.505 247.811 138.286 240.031 137.664 230.072L130.448 114.602Z" fill="#22C55E"/>
<path d="M146.234 217.704L138.591 127.117L144.395 126.627L152.037 217.215L146.234 217.704ZM156.507 155.719C155.983 152.889 154.581 150.774 152.301 149.374C150.021 147.975 147.04 147.43 143.36 147.741C140.86 147.952 138.778 148.484 137.116 149.337C135.452 150.166 134.211 151.233 133.395 152.537C132.602 153.84 132.271 155.269 132.402 156.826C132.464 158.128 132.831 159.237 133.503 160.155C134.198 161.07 135.106 161.837 136.227 162.455C137.346 163.05 138.624 163.548 140.059 163.949C141.493 164.327 143.015 164.626 144.625 164.847L151.268 165.855C154.488 166.296 157.47 166.994 160.211 167.951C162.953 168.908 165.364 170.166 167.443 171.724C169.523 173.283 171.192 175.186 172.451 177.432C173.733 179.676 174.513 182.306 174.792 185.324C175.142 189.761 174.334 193.702 172.368 197.146C170.423 200.565 167.427 203.348 163.379 205.495C159.352 207.617 154.391 208.926 148.493 209.424C142.642 209.917 137.471 209.451 132.979 208.024C128.511 206.596 124.914 204.226 122.187 200.916C119.483 197.581 117.851 193.311 117.294 188.108L132.12 186.857C132.49 189.273 133.357 191.243 134.721 192.767C136.107 194.266 137.873 195.34 140.018 195.991C142.186 196.616 144.59 196.817 147.232 196.594C149.827 196.375 152.048 195.807 153.895 194.891C155.766 193.973 157.176 192.797 158.124 191.363C159.072 189.929 159.472 188.339 159.325 186.593C159.188 184.965 158.589 183.638 157.528 182.611C156.491 181.582 155.019 180.755 153.114 180.132C151.231 179.507 148.942 178.987 146.247 178.573L138.188 177.257C131.953 176.287 126.933 174.37 123.128 171.507C119.322 168.645 117.206 164.535 116.777 159.178C116.384 154.792 117.228 150.86 119.31 147.382C121.416 143.902 124.468 141.067 128.464 138.876C132.461 136.686 137.102 135.368 142.386 134.922C147.765 134.468 152.537 134.992 156.702 136.494C160.891 137.994 164.245 140.289 166.763 143.379C169.28 146.469 170.757 150.169 171.192 154.48L156.507 155.719Z" fill="white"/>
<defs>
<linearGradient id="paint0_linear_33_43" x1="192.5" y1="296" x2="192.5" y2="394" gradientUnits="userSpaceOnUse">
<stop stop-color="#22C55E"/>
<stop offset="1" stop-color="#24D782"/>
</linearGradient>
<linearGradient id="paint1_linear_33_43" x1="325.218" y1="344.999" x2="355.216" y2="345.384" gradientUnits="userSpaceOnUse">
<stop stop-color="#22C55E"/>
<stop offset="1" stop-color="#16D29D"/>
</linearGradient>
<linearGradient id="paint2_linear_33_43" x1="225.5" y1="351" x2="225.5" y2="449" gradientUnits="userSpaceOnUse">
<stop stop-color="#22C55E"/>
<stop offset="1" stop-color="#24D782"/>
</linearGradient>
</defs>
</svg>
