<svg width="509" height="341" viewBox="0 0 509 341" fill="none" xmlns="http://www.w3.org/2000/svg">
<g clip-path="url(#clip0_28_16)">
<rect width="509" height="341" fill="white"/>
<path d="M111.44 286L93.36 242.96H106.24L121.28 280H114.88L130.48 242.96H142.48L124.32 286H111.44ZM166.881 286.64C162.294 286.64 158.214 285.68 154.641 283.76C151.121 281.84 148.321 279.227 146.241 275.92C144.214 272.56 143.201 268.747 143.201 264.48C143.201 260.16 144.214 256.347 146.241 253.04C148.321 249.68 151.121 247.067 154.641 245.2C158.214 243.28 162.294 242.32 166.881 242.32C171.414 242.32 175.467 243.28 179.041 245.2C182.614 247.067 185.414 249.653 187.441 252.96C189.467 256.267 190.481 260.107 190.481 264.48C190.481 268.747 189.467 272.56 187.441 275.92C185.414 279.227 182.614 281.84 179.041 283.76C175.467 285.68 171.414 286.64 166.881 286.64ZM166.881 276.4C168.961 276.4 170.827 275.92 172.481 274.96C174.134 274 175.441 272.64 176.401 270.88C177.361 269.067 177.841 266.933 177.841 264.48C177.841 261.973 177.361 259.84 176.401 258.08C175.441 256.32 174.134 254.96 172.481 254C170.827 253.04 168.961 252.56 166.881 252.56C164.801 252.56 162.934 253.04 161.281 254C159.627 254.96 158.294 256.32 157.281 258.08C156.321 259.84 155.841 261.973 155.841 264.48C155.841 266.933 156.321 269.067 157.281 270.88C158.294 272.64 159.627 274 161.281 274.96C162.934 275.92 164.801 276.4 166.881 276.4ZM219.623 286.64C214.983 286.64 210.849 285.707 207.223 283.84C203.596 281.92 200.743 279.28 198.663 275.92C196.636 272.56 195.623 268.747 195.623 264.48C195.623 260.16 196.636 256.347 198.663 253.04C200.743 249.68 203.596 247.067 207.223 245.2C210.849 243.28 214.983 242.32 219.623 242.32C224.156 242.32 228.103 243.28 231.463 245.2C234.823 247.067 237.303 249.76 238.903 253.28L229.223 258.48C228.103 256.453 226.689 254.96 224.983 254C223.329 253.04 221.516 252.56 219.543 252.56C217.409 252.56 215.489 253.04 213.783 254C212.076 254.96 210.716 256.32 209.703 258.08C208.743 259.84 208.263 261.973 208.263 264.48C208.263 266.987 208.743 269.12 209.703 270.88C210.716 272.64 212.076 274 213.783 274.96C215.489 275.92 217.409 276.4 219.543 276.4C221.516 276.4 223.329 275.947 224.983 275.04C226.689 274.08 228.103 272.56 229.223 270.48L238.903 275.76C237.303 279.227 234.823 281.92 231.463 283.84C228.103 285.707 224.156 286.64 219.623 286.64ZM266.901 286.64C261.995 286.64 257.675 285.68 253.941 283.76C250.261 281.84 247.408 279.227 245.381 275.92C243.355 272.56 242.341 268.747 242.341 264.48C242.341 260.16 243.328 256.347 245.301 253.04C247.328 249.68 250.075 247.067 253.541 245.2C257.008 243.28 260.928 242.32 265.301 242.32C269.515 242.32 273.301 243.227 276.661 245.04C280.075 246.8 282.768 249.36 284.741 252.72C286.715 256.027 287.701 260 287.701 264.64C287.701 265.12 287.675 265.68 287.621 266.32C287.568 266.907 287.515 267.467 287.461 268H252.501V260.72H280.901L276.101 262.88C276.101 260.64 275.648 258.693 274.741 257.04C273.835 255.387 272.581 254.107 270.981 253.2C269.381 252.24 267.515 251.76 265.381 251.76C263.248 251.76 261.355 252.24 259.701 253.2C258.101 254.107 256.848 255.413 255.941 257.12C255.035 258.773 254.581 260.747 254.581 263.04V264.96C254.581 267.307 255.088 269.387 256.101 271.2C257.168 272.96 258.635 274.32 260.501 275.28C262.421 276.187 264.661 276.64 267.221 276.64C269.515 276.64 271.515 276.293 273.221 275.6C274.981 274.907 276.581 273.867 278.021 272.48L284.661 279.68C282.688 281.92 280.208 283.653 277.221 284.88C274.235 286.053 270.795 286.64 266.901 286.64ZM248.981 237.44L259.541 225.92H270.581L281.141 237.44H272.021L260.981 227.84H269.141L258.101 237.44H248.981Z" fill="url(#paint0_linear_28_16)"/>
<path d="M335.477 264.156C335.491 263.089 335.72 262.142 336.164 261.315C336.591 260.47 337.25 259.812 338.139 259.34C339.012 258.868 340.132 258.64 341.498 258.658L349.198 258.757L349.148 262.657L342.048 262.565C340.965 262.551 340.162 262.783 339.639 263.259C339.117 263.719 338.85 264.383 338.839 265.249C338.831 265.866 338.957 266.426 339.217 266.929C339.461 267.416 339.847 267.804 340.377 268.094C340.907 268.368 341.589 268.51 342.422 268.521L349.071 268.606L349.021 272.506L335.572 272.333L335.62 268.608L339.345 268.656L338.211 269.342C337.317 268.847 336.634 268.146 336.163 267.24C335.691 266.334 335.463 265.306 335.477 264.156ZM349.527 248.727C349.508 250.161 349.192 251.432 348.578 252.541C347.964 253.633 347.136 254.497 346.094 255.134C345.036 255.754 343.84 256.055 342.507 256.038C341.157 256.021 339.97 255.689 338.945 255.042C337.903 254.379 337.098 253.493 336.529 252.386C335.943 251.261 335.659 249.983 335.678 248.549C335.696 247.133 336.012 245.87 336.627 244.761C337.224 243.652 338.044 242.788 339.085 242.168C340.127 241.548 341.331 241.247 342.697 241.264C344.03 241.281 345.218 241.613 346.26 242.26C347.285 242.907 348.09 243.792 348.676 244.916C349.261 246.041 349.545 247.311 349.527 248.727ZM346.327 248.686C346.335 248.036 346.193 247.451 345.9 246.931C345.606 246.41 345.186 245.996 344.64 245.689C344.078 245.382 343.413 245.224 342.646 245.214C341.863 245.204 341.195 245.345 340.641 245.638C340.087 245.931 339.657 246.334 339.35 246.847C339.043 247.359 338.886 247.941 338.878 248.591C338.869 249.241 339.012 249.826 339.305 250.346C339.598 250.867 340.018 251.289 340.564 251.613C341.11 251.92 341.775 252.078 342.558 252.088C343.325 252.098 343.993 251.957 344.564 251.664C345.118 251.354 345.548 250.943 345.855 250.43C346.161 249.918 346.319 249.336 346.327 248.686Z" fill="url(#paint1_linear_28_16)"/>
<path d="M78.44 341.96C74.12 341.96 70.0933 341.267 66.36 339.88C62.68 338.44 59.48 336.413 56.76 333.8C54.04 331.187 51.9067 328.12 50.36 324.6C48.8667 321.08 48.12 317.213 48.12 313C48.12 308.787 48.8667 304.92 50.36 301.4C51.9067 297.88 54.04 294.813 56.76 292.2C59.5333 289.587 62.76 287.587 66.44 286.2C70.12 284.76 74.1467 284.04 78.52 284.04C83.3733 284.04 87.7467 284.893 91.64 286.6C95.5867 288.253 98.8933 290.707 101.56 293.96L93.24 301.64C91.32 299.453 89.1867 297.827 86.84 296.76C84.4933 295.64 81.9333 295.08 79.16 295.08C76.5467 295.08 74.1467 295.507 71.96 296.36C69.7733 297.213 67.88 298.44 66.28 300.04C64.68 301.64 63.4267 303.533 62.52 305.72C61.6667 307.907 61.24 310.333 61.24 313C61.24 315.667 61.6667 318.093 62.52 320.28C63.4267 322.467 64.68 324.36 66.28 325.96C67.88 327.56 69.7733 328.787 71.96 329.64C74.1467 330.493 76.5467 330.92 79.16 330.92C81.9333 330.92 84.4933 330.387 86.84 329.32C89.1867 328.2 91.32 326.52 93.24 324.28L101.56 331.96C98.8933 335.213 95.5867 337.693 91.64 339.4C87.7467 341.107 83.3467 341.96 78.44 341.96ZM128.428 341.64C123.841 341.64 119.761 340.68 116.188 338.76C112.668 336.84 109.868 334.227 107.788 330.92C105.761 327.56 104.748 323.747 104.748 319.48C104.748 315.16 105.761 311.347 107.788 308.04C109.868 304.68 112.668 302.067 116.188 300.2C119.761 298.28 123.841 297.32 128.428 297.32C132.961 297.32 137.014 298.28 140.588 300.2C144.161 302.067 146.961 304.653 148.988 307.96C151.014 311.267 152.028 315.107 152.028 319.48C152.028 323.747 151.014 327.56 148.988 330.92C146.961 334.227 144.161 336.84 140.588 338.76C137.014 340.68 132.961 341.64 128.428 341.64ZM128.428 331.4C130.508 331.4 132.374 330.92 134.028 329.96C135.681 329 136.988 327.64 137.948 325.88C138.908 324.067 139.388 321.933 139.388 319.48C139.388 316.973 138.908 314.84 137.948 313.08C136.988 311.32 135.681 309.96 134.028 309C132.374 308.04 130.508 307.56 128.428 307.56C126.348 307.56 124.481 308.04 122.828 309C121.174 309.96 119.841 311.32 118.828 313.08C117.868 314.84 117.388 316.973 117.388 319.48C117.388 321.933 117.868 324.067 118.828 325.88C119.841 327.64 121.174 329 122.828 329.96C124.481 330.92 126.348 331.4 128.428 331.4ZM186.529 297.32C189.943 297.32 192.983 298.013 195.649 299.4C198.369 300.733 200.503 302.813 202.049 305.64C203.596 308.413 204.369 311.987 204.369 316.36V341H191.889V318.28C191.889 314.813 191.116 312.253 189.569 310.6C188.076 308.947 185.943 308.12 183.169 308.12C181.196 308.12 179.409 308.547 177.809 309.4C176.263 310.2 175.036 311.453 174.129 313.16C173.276 314.867 172.849 317.053 172.849 319.72V341H160.369V297.96H172.289V309.88L170.049 306.28C171.596 303.4 173.809 301.187 176.689 299.64C179.569 298.093 182.849 297.32 186.529 297.32ZM233.282 341.64C228.215 341.64 224.269 340.36 221.442 337.8C218.615 335.187 217.202 331.32 217.202 326.2V288.44H229.682V326.04C229.682 327.853 230.162 329.267 231.122 330.28C232.082 331.24 233.389 331.72 235.042 331.72C237.015 331.72 238.695 331.187 240.082 330.12L243.442 338.92C242.162 339.827 240.615 340.52 238.802 341C237.042 341.427 235.202 341.64 233.282 341.64ZM210.562 308.52V298.92H240.402V308.52H210.562ZM250.448 341V297.96H262.368V310.12L260.688 306.6C261.968 303.56 264.021 301.267 266.848 299.72C269.674 298.12 273.114 297.32 277.168 297.32V308.84C276.634 308.787 276.154 308.76 275.728 308.76C275.301 308.707 274.848 308.68 274.368 308.68C270.954 308.68 268.181 309.667 266.048 311.64C263.968 313.56 262.928 316.573 262.928 320.68V341H250.448ZM304.756 341.64C300.169 341.64 296.089 340.68 292.516 338.76C288.996 336.84 286.196 334.227 284.116 330.92C282.089 327.56 281.076 323.747 281.076 319.48C281.076 315.16 282.089 311.347 284.116 308.04C286.196 304.68 288.996 302.067 292.516 300.2C296.089 298.28 300.169 297.32 304.756 297.32C309.289 297.32 313.342 298.28 316.916 300.2C320.489 302.067 323.289 304.653 325.316 307.96C327.342 311.267 328.356 315.107 328.356 319.48C328.356 323.747 327.342 327.56 325.316 330.92C323.289 334.227 320.489 336.84 316.916 338.76C313.342 340.68 309.289 341.64 304.756 341.64ZM304.756 331.4C306.836 331.4 308.702 330.92 310.356 329.96C312.009 329 313.316 327.64 314.276 325.88C315.236 324.067 315.716 321.933 315.716 319.48C315.716 316.973 315.236 314.84 314.276 313.08C313.316 311.32 312.009 309.96 310.356 309C308.702 308.04 306.836 307.56 304.756 307.56C302.676 307.56 300.809 308.04 299.156 309C297.502 309.96 296.169 311.32 295.156 313.08C294.196 314.84 293.716 316.973 293.716 319.48C293.716 321.933 294.196 324.067 295.156 325.88C296.169 327.64 297.502 329 299.156 329.96C300.809 330.92 302.676 331.4 304.756 331.4ZM336.698 341V281.64H349.178V341H336.698ZM382.12 341.64C377.213 341.64 372.893 340.68 369.16 338.76C365.48 336.84 362.627 334.227 360.6 330.92C358.573 327.56 357.56 323.747 357.56 319.48C357.56 315.16 358.547 311.347 360.52 308.04C362.547 304.68 365.293 302.067 368.76 300.2C372.227 298.28 376.147 297.32 380.52 297.32C384.733 297.32 388.52 298.227 391.88 300.04C395.293 301.8 397.987 304.36 399.96 307.72C401.933 311.027 402.92 315 402.92 319.64C402.92 320.12 402.893 320.68 402.84 321.32C402.787 321.907 402.733 322.467 402.68 323H367.72V315.72H396.12L391.32 317.88C391.32 315.64 390.867 313.693 389.96 312.04C389.053 310.387 387.8 309.107 386.2 308.2C384.6 307.24 382.733 306.76 380.6 306.76C378.467 306.76 376.573 307.24 374.92 308.2C373.32 309.107 372.067 310.413 371.16 312.12C370.253 313.773 369.8 315.747 369.8 318.04V319.96C369.8 322.307 370.307 324.387 371.32 326.2C372.387 327.96 373.853 329.32 375.72 330.28C377.64 331.187 379.88 331.64 382.44 331.64C384.733 331.64 386.733 331.293 388.44 330.6C390.2 329.907 391.8 328.867 393.24 327.48L399.88 334.68C397.907 336.92 395.427 338.653 392.44 339.88C389.453 341.053 386.013 341.64 382.12 341.64Z" fill="url(#paint2_linear_28_16)"/>
<path d="M0.534912 28.3611L21.5644 20.7147L33.986 65.5058L46.05 112.14L68.9299 200.585L292.998 183.195L509.001 171.726L50.4666 220.802L0.534912 28.3611Z" fill="#22C55E"/>
<path d="M27.0538 17.3385L63.6196 5.42243L69.3537 37.9185L71.2652 49.3877L73.1767 60.8569L76.9998 79.9721L94.2035 165.991L461.834 165.991L313.458 177.872L157.286 188.929L72.5926 196.229L27.0538 17.3385Z" fill="#22C55E"/>
<path d="M65.5312 5.42236L136.258 5.42236L203.161 5.42236L220.365 160.256L96.7229 162.187L65.5312 5.42236Z" fill="#22C55E"/>
<path d="M130.448 26.6021C129.774 15.8183 138.217 6.644 149.019 6.42109L197.424 5.42225L250.946 5.42225L304.469 5.42225L328.012 5.42225L348.527 6.19981C350.12 6.26017 351.676 6.69777 353.066 7.47662L354.488 8.27301C362.016 12.4897 360.405 23.7631 351.998 25.7034V25.7034C351.302 25.864 350.59 25.9451 349.876 25.9451L314.631 25.9451L266.843 25.9451L215.792 25.9451C210.125 25.9451 209.172 34.0601 214.686 35.3728V35.3728C215.048 35.4591 215.42 35.5027 215.792 35.5027L263.02 35.5027L314.631 35.5027L329.579 35.5027C330.664 35.5027 331.732 35.7664 332.692 36.2711V36.2711C338.876 39.5219 336.565 48.8834 329.579 48.8834L327.407 48.8834L335.658 48.8834L291.693 48.8834L257.285 48.8834L217.935 48.8834C216.204 48.8834 214.544 49.5711 213.32 50.7952L212.852 51.2637C211.928 52.1875 211.409 53.4402 211.409 54.7465V54.7465C211.409 56.9358 212.878 58.8727 214.983 59.477C224.327 62.1607 205.276 56.3658 216.431 59.59C218.16 60.0899 219.969 60.3525 221.769 60.3525L291.693 60.3525L328.012 60.3525L347.127 60.3525L349.11 60.3525C355.536 60.3525 360.226 66.4273 358.601 72.6439V72.6439C357.472 76.9606 353.572 79.9718 349.11 79.9718L319.761 79.9718L281.531 79.9718L245.212 79.9718L237.127 79.9718C226.196 79.9718 223.826 95.354 234.25 98.6439V98.6439C235.181 98.9376 236.151 99.0871 237.127 99.0871L356.684 99.0871L367.51 99.0871C374.932 99.0871 378.87 107.856 373.939 113.404V113.404C372.306 115.24 369.967 116.291 367.51 116.291L356.684 116.291L331.23 116.291V116.291C321.469 117.657 322.274 132.011 332.127 132.277L423.43 134.743C427.169 134.844 430.675 136.581 433.021 139.494V139.494C439.745 147.841 433.803 160.256 423.085 160.256L421.072 160.256L386.665 160.256L350.95 160.256L279.619 160.256L205.07 160.256L156.483 159.887C146.505 159.811 138.286 152.031 137.664 142.072L130.448 26.6021Z" fill="#22C55E"/>
<path d="M146.234 129.704L138.591 39.1169L144.395 38.6274L152.037 129.215L146.234 129.704ZM156.507 67.7193C155.983 64.8887 154.581 62.7737 152.301 61.3742C150.021 59.9748 147.04 59.4303 143.36 59.7407C140.86 59.9517 138.778 60.4837 137.116 61.3367C135.452 62.1661 134.211 63.2329 133.395 64.5373C132.602 65.8396 132.271 67.2692 132.402 68.8262C132.464 70.1277 132.831 71.2371 133.503 72.1546C134.198 73.07 135.106 73.8368 136.227 74.455C137.346 75.0496 138.624 75.5476 140.059 75.9492C141.493 76.3272 143.015 76.6264 144.625 76.8469L151.268 77.8546C154.488 78.2957 157.47 78.9945 160.211 79.9511C162.953 80.9077 165.364 82.1655 167.443 83.7244C169.523 85.2833 171.192 87.1857 172.451 89.4316C173.733 91.6755 174.513 94.3063 174.792 97.3239C175.142 101.761 174.334 105.702 172.368 109.146C170.423 112.565 167.427 115.348 163.379 117.495C159.352 119.617 154.391 120.926 148.493 121.424C142.642 121.917 137.471 121.451 132.979 120.024C128.511 118.596 124.914 116.226 122.187 112.916C119.483 109.581 117.851 105.311 117.294 100.108L132.12 98.8568C132.49 101.273 133.357 103.243 134.721 104.767C136.107 106.266 137.873 107.34 140.018 107.991C142.186 108.616 144.59 108.817 147.232 108.594C149.827 108.375 152.048 107.807 153.895 106.891C155.766 105.973 157.176 104.797 158.124 103.363C159.072 101.929 159.472 100.339 159.325 98.593C159.188 96.9653 158.589 95.6378 157.528 94.6107C156.491 93.5815 155.019 92.7553 153.114 92.1321C151.231 91.5069 148.942 90.9872 146.247 90.5732L138.188 89.2573C131.953 88.2865 126.933 86.3699 123.128 83.5073C119.322 80.6447 117.206 76.5349 116.777 71.1778C116.384 66.792 117.228 62.86 119.31 59.382C121.416 55.9019 124.468 53.0667 128.464 50.8764C132.461 48.686 137.102 47.368 142.386 46.9222C147.765 46.4684 152.537 46.9924 156.702 48.4941C160.891 49.9939 164.245 52.2887 166.763 55.3788C169.28 58.4688 170.757 62.1693 171.192 66.4804L156.507 67.7193Z" fill="white"/>
</g>
<defs>
<linearGradient id="paint0_linear_28_16" x1="192.5" y1="208" x2="192.5" y2="306" gradientUnits="userSpaceOnUse">
<stop stop-color="#22C55E"/>
<stop offset="1" stop-color="#24D782"/>
</linearGradient>
<linearGradient id="paint1_linear_28_16" x1="325.218" y1="256.999" x2="355.216" y2="257.384" gradientUnits="userSpaceOnUse">
<stop stop-color="#22C55E"/>
<stop offset="1" stop-color="#16D29D"/>
</linearGradient>
<linearGradient id="paint2_linear_28_16" x1="225.5" y1="263" x2="225.5" y2="361" gradientUnits="userSpaceOnUse">
<stop stop-color="#22C55E"/>
<stop offset="1" stop-color="#24D782"/>
</linearGradient>
<clipPath id="clip0_28_16">
<rect width="509" height="341" fill="white"/>
</clipPath>
</defs>
</svg>
